<?xml version="1.0" encoding="UTF-8"?>
<svg xmlns="http://www.w3.org/2000/svg" viewBox="0 0 1200 630" width="1200" height="630" font-family="ui-sans-serif, -apple-system, 'Segoe UI', Inter, system-ui, sans-serif">
  <rect width="1200" height="630" fill="#0b1220"/>

  <g stroke="#111a2c" stroke-width="1">
    <path d="M0 105 H1200 M0 210 H1200 M0 315 H1200 M0 420 H1200 M0 525 H1200"/>
    <path d="M150 0 V630 M300 0 V630 M450 0 V630 M600 0 V630 M750 0 V630 M900 0 V630 M1050 0 V630"/>
  </g>

  <text x="600" y="80" text-anchor="middle" fill="#f8fafc" font-size="38" font-weight="700" letter-spacing="-0.5">
    Three slash commands that earn their keep
  </text>
  <text x="600" y="112" text-anchor="middle" fill="#94a3b8" font-size="18">
    the tool is free — the habit is the cost
  </text>

  <!-- ===== Card 1: /review ===== -->
  <g>
    <rect x="60" y="150" width="350" height="395" rx="12" fill="#0f1d2a" stroke="#34d399" stroke-width="2"/>
    <text x="80" y="190" fill="#34d399" font-size="22" font-weight="700" font-family="ui-monospace, 'SF Mono', 'JetBrains Mono', Consolas, monospace">
      /review
    </text>
    <text x="80" y="218" fill="#94a3b8" font-size="13" letter-spacing="1" font-family="ui-monospace, 'SF Mono', 'JetBrains Mono', Consolas, monospace">
      CODE REVIEW PASS
    </text>

    <text x="80" y="265" fill="#f8fafc" font-size="14" font-weight="600">What it catches:</text>
    <g font-size="13" fill="#cbd5e1">
      <text x="80" y="288">· half-finished tests</text>
      <text x="80" y="310">· leftover TODOs</text>
      <text x="80" y="332">· orphaned callers</text>
      <text x="80" y="354">· unused imports</text>
    </g>

    <line x1="80" y1="385" x2="390" y2="385" stroke="#1f2a44" stroke-width="1"/>

    <text x="80" y="410" fill="#fb7185" font-size="12" font-weight="700" letter-spacing="2" font-family="ui-monospace, 'SF Mono', 'JetBrains Mono', Consolas, monospace">
      COMMON MISTAKE
    </text>
    <g font-size="13" fill="#f8fafc">
      <text x="80" y="435">running it</text>
      <text x="80" y="455" font-weight="700" fill="#fb7185">after the push.</text>
      <text x="80" y="487" fill="#94a3b8">By then it's theater —</text>
      <text x="80" y="507" fill="#94a3b8">catches need a follow-up</text>
      <text x="80" y="527" fill="#94a3b8">PR.</text>
    </g>
  </g>

  <!-- ===== Card 2: /security-review ===== -->
  <g>
    <rect x="425" y="150" width="350" height="395" rx="12" fill="#0f1d2a" stroke="#34d399" stroke-width="2"/>
    <text x="445" y="190" fill="#34d399" font-size="22" font-weight="700" font-family="ui-monospace, 'SF Mono', 'JetBrains Mono', Consolas, monospace">
      /security-review
    </text>
    <text x="445" y="218" fill="#94a3b8" font-size="13" letter-spacing="1" font-family="ui-monospace, 'SF Mono', 'JetBrains Mono', Consolas, monospace">
      SECURITY AUDIT
    </text>

    <text x="445" y="265" fill="#f8fafc" font-size="14" font-weight="600">When to run it:</text>
    <g font-size="13" fill="#cbd5e1">
      <text x="445" y="288">· auth changes</text>
      <text x="445" y="310">· anything reading input</text>
      <text x="445" y="332">· crossing trust borders</text>
      <text x="445" y="354">· HTTP / IO / subprocess</text>
    </g>

    <line x1="445" y1="385" x2="755" y2="385" stroke="#1f2a44" stroke-width="1"/>

    <text x="445" y="410" fill="#fb7185" font-size="12" font-weight="700" letter-spacing="2" font-family="ui-monospace, 'SF Mono', 'JetBrains Mono', Consolas, monospace">
      COMMON MISTAKE
    </text>
    <g font-size="13" fill="#f8fafc">
      <text x="445" y="435">pointing it at</text>
      <text x="445" y="455" font-weight="700" fill="#fb7185">the whole branch.</text>
      <text x="445" y="487" fill="#94a3b8">12 plausible findings,</text>
      <text x="445" y="507" fill="#94a3b8">half irrelevant.</text>
      <text x="445" y="527" fill="#94a3b8">Signal drowns.</text>
    </g>
  </g>

  <!-- ===== Card 3: /init ===== -->
  <g>
    <rect x="790" y="150" width="350" height="395" rx="12" fill="#0f1d2a" stroke="#34d399" stroke-width="2"/>
    <text x="810" y="190" fill="#34d399" font-size="22" font-weight="700" font-family="ui-monospace, 'SF Mono', 'JetBrains Mono', Consolas, monospace">
      /init
    </text>
    <text x="810" y="218" fill="#94a3b8" font-size="13" letter-spacing="1" font-family="ui-monospace, 'SF Mono', 'JetBrains Mono', Consolas, monospace">
      BOOTSTRAP CLAUDE.md
    </text>

    <text x="810" y="265" fill="#f8fafc" font-size="14" font-weight="600">What you get:</text>
    <g font-size="13" fill="#cbd5e1">
      <text x="810" y="288">· structure summary</text>
      <text x="810" y="310">· conventions guess</text>
      <text x="810" y="332">· starter scaffolding</text>
      <text x="810" y="354">· sections to fill in</text>
    </g>

    <line x1="810" y1="385" x2="1120" y2="385" stroke="#1f2a44" stroke-width="1"/>

    <text x="810" y="410" fill="#fb7185" font-size="12" font-weight="700" letter-spacing="2" font-family="ui-monospace, 'SF Mono', 'JetBrains Mono', Consolas, monospace">
      COMMON MISTAKE
    </text>
    <g font-size="13" fill="#f8fafc">
      <text x="810" y="435">keeping the output</text>
      <text x="810" y="455" font-weight="700" fill="#fb7185">as-is.</text>
      <text x="810" y="487" fill="#94a3b8">Generic. Wallpaper.</text>
      <text x="810" y="507" fill="#94a3b8">Value lives in the edits</text>
      <text x="810" y="527" fill="#94a3b8">you make on top.</text>
    </g>
  </g>

  <text x="600" y="585" text-anchor="middle" fill="#cbd5e1" font-size="18" font-style="italic">
    free to run · zero value if you run it wrong.
  </text>

  <text x="1140" y="615" text-anchor="end" fill="#475569" font-size="14" font-family="ui-monospace, 'SF Mono', 'JetBrains Mono', Consolas, monospace">
    furevikstrand.cloud
  </text>
</svg>
